# xmcd CD database file
#
# Track frame offsets:
#	150
#	11365
#	29610
#	42962
#	54890
#	71855
#	87007
#	99712
#	115225
#	130004
#	147602
#	162262
#
# Disc length: 2390 seconds
#
# Revision: 2
# Processed by: cddbd v1.5.2PL0 Copyright (c) Steve Scherf et al.
# Submitted via: CDex 1.51
#
DISCID=a009540c
DTITLE=John Kelly - Anthem For The Children
DYEAR=1900
DGENRE=Country
TTITLE0=I'll Settle For Old Ireland
TTITLE1=Anthem For The Children
TTITLE2=Phil The Fluters Ball
TTITLE3=To Welcome Paddy Home
TTITLE4=Lovely Westport
TTITLE5=Moonlight In Mayo
TTITLE6=My Achill Island Home
TTITLE7=Always My Friend
TTITLE8=Nora
TTITLE9=The Moon Behind The Hill
TTITLE10=The Grand Old River Moy
TTITLE11=The Isle Of Inishfree
EXTD=
EXTT0=
EXTT1=
EXTT2=
EXTT3=
EXTT4=
EXTT5=
EXTT6=
EXTT7=
EXTT8=
EXTT9=
EXTT10=
EXTT11=
PLAYORDER=
